{"title":"Winters.Bone.2010.BRRip.H264.Feel-Free","uid":5888790,"size":1768113629,"categoryP":"video","categoryS":"movies","magnet":"?xt=urn:btih:fc33b480a722aba7cdc5f468ceb702333eb76732&amp;dn=Winters.Bone.2010.BRRip.H264.Feel-Free&amp;tr=udp%3A%2F%2Ftracker.openbittorrent.com%3A80&amp;tr=udp%3A%2F%2Fopen.demonii.com%3A1337&amp;tr=udp%3A%2F%2Ftracker.coppersurfer.tk%3A6969&amp;tr=udp%3A%2F%2Fexodus.desync.com%3A6969","seeders":5,"leechers":0,"uploader":"HeroMaster","files":-1,"time":1287153460,"description":"Genre: Drama | Mystery | Thriller\nLanguage:English\nIMDb:http://www.imdb.com/title/tt1399683/\nSource:720p.BluRay.x264-DEPRAViTY\n\nGeneral\nComplete name :Winters.Bone.2010.BRRip.H264.Feel-Free\nFormat : MPEG-4\nFormat profile : Base Media\nCodec ID : isom\nFile size : 1.65 GiB\nDuration : 1h 40mn\nOverall bit rate : 2 352 Kbps\n\nVideo #1\nCodec ID : avc1\nCodec ID/Info : Advanced Video Coding\nDuration : 1h 40mn\nBit rate mode : Variable\nBit rate : 2 035 Kbps\nWidth : 1 280 pixels\nHeight : 720 pixels\nDisplay aspect ratio : 16:9\nFrame rate mode : Constant\nFrame rate : 23.976 fps\nResolution : 24 bits\nColorimetry : 4:2:0\nScan type : Progressive\nBits/(Pixel*Frame) : 0.092\nStream size : 1.42 GiB (86%)\n\nAudio #2\nID : 2\nFormat : AAC\nFormat/Info : Advanced Audio Codec\nFormat version : Version 4\nFormat profile : LC\nFormat settings, SBR : No\nCodec ID : 40\nDuration : 1h 40mn\nBit rate mode : Variable\nBit rate : 320 Kbps\nChannel(s) : 6 channels\nChannel positions : Front: L C R, Rear: L R, LFE\nSampling rate : 48.0 KHz\nResolution : 16 bits\nStream size : 224 MiB (13%)\n\nPlot:\nAn unflinching Ozark Mountain girl hacks through dangerous social terrain as she hunts down her drug-dealing father while trying to keep her family intact.\n\nScreenshots:\n &lt;a href=&quot;\nhttp://www.postimg.com/image/23000/22559.jpg&quot; rel=&quot;nofollow&quot; target=&quot;_NEW&quot;&gt;\nhttp://www.postimg.com/image/23000/22559.jpg&lt;/a&gt; &lt;a href=&quot;\nhttp://www.postimg.com/image/23000/22560.jpg&quot; rel=&quot;nofollow&quot; target=&quot;_NEW&quot;&gt;\nhttp://www.postimg.com/image/23000/22560.jpg&lt;/a&gt;\n\n\nENJOY!","torrent":{"xt":"urn:btih:fc33b480a722aba7cdc5f468ceb702333eb76732","amp;dn":"Winters.Bone.2010.BRRip.H264.Feel-Free","amp;tr":["udp%3A%2F%2Ftracker.openbittorrent.com%3A80","udp%3A%2F%2Fopen.demonii.com%3A1337","udp%3A%2F%2Ftracker.coppersurfer.tk%3A6969","udp%3A%2F%2Fexodus.desync.com%3A6969"],"infoHash":"fc33b480a722aba7cdc5f468ceb702333eb76732","infoHashBuffer":{"type":"Buffer","data":[252,51,180,128,167,34,171,167,205,197,244,104,206,183,2,51,62,183,103,50]},"announce":[],"urlList":[]}}